<?xml version="1.0" standalone="no"?>
<!DOCTYPE svg PUBLIC "-//W3C//DTD SVG 20010904//EN"
 "http://www.w3.org/TR/2001/REC-SVG-20010904/DTD/svg10.dtd">
<svg version="1.0" xmlns="http://www.w3.org/2000/svg"
 width="1000.000000pt" height="1000.000000pt" viewBox="0 0 1000.000000 1000.000000"
 preserveAspectRatio="xMidYMid meet">
<metadata>
Created by potrace 1.14, written by Peter Selinger 2001-2017
</metadata>
<g transform="translate(0.000000,1000.000000) scale(0.100000,-0.100000)"
fill="#000000" stroke="none">
<path d="M4818 7675 c-2 -2 -32 -6 -68 -9 -240 -20 -538 -89 -727 -168 -16 -6
-30 -12 -33 -13 -7 -2 -61 -24 -80 -32 -8 -3 -17 -7 -20 -8 -13 -3 -211 -106
-258 -134 -29 -17 -57 -31 -62 -31 -6 0 -10 -4 -10 -9 0 -5 -9 -13 -20 -16
-11 -3 -26 -12 -33 -18 -7 -7 -41 -32 -76 -56 -36 -24 -71 -50 -80 -57 -9 -7
-43 -34 -76 -61 -106 -84 -250 -223 -329 -317 -109 -129 -141 -171 -164 -208
-9 -16 -20 -28 -24 -28 -4 0 -8 -6 -8 -14 0 -7 -6 -19 -14 -25 -39 -33 -254
-434 -248 -463 1 -5 -3 -8 -10 -8 -6 0 -8 -3 -5 -6 3 -4 1 -16 -5 -28 -7 -11
-13 -23 -14 -26 0 -3 -3 -12 -7 -20 -3 -8 -22 -65 -42 -127 -30 -90 -48 -127
-95 -191 -32 -43 -84 -121 -116 -173 -32 -52 -61 -96 -64 -99 -8 -7 -152 -286
-156 -300 0 -3 -8 -22 -17 -42 -10 -21 -17 -42 -17 -48 0 -5 -5 -10 -11 -10
-5 0 -8 -4 -4 -9 3 -5 1 -12 -5 -16 -6 -4 -8 -11 -5 -16 4 -5 1 -9 -5 -9 -6 0
-9 -4 -6 -8 3 -5 -1 -19 -7 -33 -48 -93 -187 -605 -171 -631 3 -4 2 -14 -3
-20 -8 -14 -9 -20 -18 -93 -3 -27 -8 -68 -11 -90 -3 -22 -7 -76 -9 -120 -2
-44 -5 -80 -5 -80 -6 0 -4 -268 2 -271 5 -3 4 -13 -2 -23 -5 -10 -7 -21 -4
-24 3 -3 7 -37 9 -75 4 -76 13 -178 20 -214 3 -13 8 -43 11 -68 7 -49 9 -60
24 -135 5 -27 12 -61 14 -75 3 -14 5 -25 6 -25 1 0 3 -7 5 -15 19 -84 103
-356 121 -391 8 -16 12 -29 9 -29 -3 0 0 -10 7 -22 7 -13 13 -25 13 -28 1 -3
7 -17 13 -32 7 -16 17 -40 24 -55 6 -16 12 -30 12 -33 3 -14 112 -229 127
-251 10 -14 19 -32 21 -39 2 -8 10 -22 19 -32 9 -10 22 -31 30 -46 49 -98 228
-341 332 -453 20 -22 37 -43 37 -46 0 -13 286 -286 360 -343 25 -19 47 -38 50
-41 3 -3 31 -25 62 -48 32 -24 60 -50 63 -59 8 -22 154 -120 315 -210 91 -51
261 -134 350 -171 58 -23 113 -47 123 -52 10 -5 22 -7 27 -4 6 4 10 2 10 -3 0
-5 10 -12 23 -14 12 -3 76 -22 141 -42 156 -48 382 -98 506 -111 19 -2 51 -6
70 -9 166 -23 629 -23 733 -1 12 2 45 7 72 10 98 11 304 51 383 74 17 5 32 7
32 4 0 -3 7 1 17 8 9 8 17 12 17 10 1 -2 28 4 61 14 33 9 65 18 70 19 6 2 27
10 49 19 21 9 42 14 47 11 5 -3 9 0 9 5 0 6 7 11 15 11 19 0 163 60 285 118
52 25 98 45 103 44 4 -1 7 2 7 8 0 5 7 10 15 10 8 0 15 5 15 10 0 6 7 10 15
10 8 0 38 15 67 33 29 18 70 41 91 52 20 11 37 22 37 26 0 4 14 12 30 19 17 7
30 15 30 19 0 4 16 15 35 25 19 10 32 22 30 26 -5 7 77 80 90 80 3 0 16 9 28
20 12 11 51 44 87 73 94 75 131 109 255 232 116 116 297 327 329 384 5 9 12
18 16 21 8 7 94 132 103 150 4 8 15 27 25 42 32 50 72 121 72 129 0 5 4 9 8 9
4 0 14 16 21 35 7 19 17 35 23 35 6 0 9 3 5 6 -3 3 10 35 29 70 19 35 34 70
34 79 0 8 5 15 11 15 6 0 9 7 5 15 -3 8 -2 15 2 15 6 0 43 79 48 100 1 5 17
46 31 80 3 8 7 20 9 25 1 6 16 53 34 105 51 156 95 325 114 450 3 19 8 46 10
60 3 14 7 48 11 75 3 28 8 64 11 80 5 37 15 190 15 228 -1 41 -1 45 2 145 1
52 -1 96 -5 98 -4 3 -3 15 2 28 5 13 6 27 3 30 -4 3 -7 39 -9 78 -2 40 -5 89
-7 108 -3 19 -8 58 -11 85 -7 57 -14 99 -21 135 -3 14 -12 60 -20 103 -19 99
-52 228 -75 295 -10 28 -16 52 -13 52 3 0 0 6 -6 13 -6 8 -12 23 -14 35 -2 12
-6 25 -10 28 -4 4 -7 13 -7 19 0 7 -8 30 -17 51 -9 22 -17 41 -17 44 -1 3 -8
24 -18 45 -25 60 -31 79 -30 88 1 4 -3 7 -8 7 -6 0 -10 5 -10 10 0 15 -108
231 -155 309 -70 117 -165 261 -192 291 -13 14 -23 28 -23 32 0 3 -6 13 -13
20 -8 7 -30 63 -49 123 -20 61 -42 124 -49 140 -7 17 -13 32 -14 35 -8 24 -27
68 -35 82 -6 10 -10 25 -10 33 0 8 -5 15 -11 15 -5 0 -7 5 -4 10 3 6 1 10 -4
10 -6 0 -11 9 -11 19 0 11 -8 27 -17 37 -10 10 -16 18 -15 18 7 2 -22 61 -55
113 -18 29 -33 54 -33 57 0 3 -33 53 -72 112 -40 58 -77 114 -83 122 -5 9 -15
21 -21 27 -6 5 -38 44 -71 85 -103 127 -269 288 -413 400 -25 19 -46 38 -48
42 -2 5 -10 8 -18 8 -8 0 -14 4 -14 8 0 5 -16 17 -35 28 -19 10 -35 21 -35 25
0 4 -13 12 -30 19 -16 7 -30 16 -30 20 0 4 -8 10 -17 14 -10 3 -34 16 -53 28
-101 63 -324 174 -342 170 -5 -1 -8 3 -8 10 0 6 -3 8 -6 5 -4 -3 -16 -1 -28 5
-11 7 -23 12 -26 13 -3 0 -27 8 -55 18 -52 19 -70 25 -83 28 -4 1 -18 6 -32
11 -67 27 -346 91 -445 102 -27 3 -61 8 -75 11 -27 6 -476 15 -482 10z"/>
</g>
</svg>
